<svg width="29" height="24" viewBox="0 0 29 24" fill="none" xmlns="http://www.w3.org/2000/svg">
<g clip-path="url(#clip0_2019_2451)">
<path d="M2.18494 20.2986C3.62794 20.2986 3.57066 20.4323 4.6973 20.4323L4.60182 14.8469L5.08875 12.1926H5.9194H19.8782L19.8687 10.7986L7.17016 9.89156L11.9536 3.80965L19.8687 8.72672H22.8572L11.6631 0.324707L1.67065 10.4071L2.18494 11.1232V20.2986Z" fill="#6096D7"/>
<path d="M1.84142 20.585H5.07942V14.5126V12.1964H5.59499H19.8784V10.789L5.06031 10.2829L11.5426 3.56602L19.8689 8.72665L11.3196 0L0 10.7985H1.84142V20.585Z" fill="#0054A5"/>
<path d="M10.5214 7.54248H10.2159C10.1315 7.54248 10.0631 7.61088 10.0631 7.69524V8.00077C10.0631 8.08514 10.1315 8.15354 10.2159 8.15354H10.5214C10.6058 8.15354 10.6742 8.08514 10.6742 8.00077V7.69524C10.6742 7.61088 10.6058 7.54248 10.5214 7.54248Z" fill="#0054A5"/>
<path d="M11.7056 7.54248H11.4001C11.3157 7.54248 11.2473 7.61088 11.2473 7.69524V8.00077C11.2473 8.08514 11.3157 8.15354 11.4001 8.15354H11.7056C11.79 8.15354 11.8584 8.08514 11.8584 8.00077V7.69524C11.8584 7.61088 11.79 7.54248 11.7056 7.54248Z" fill="#0054A5"/>
<path d="M10.5214 8.72607H10.2159C10.1315 8.72607 10.0631 8.79447 10.0631 8.87884V9.18437C10.0631 9.26873 10.1315 9.33713 10.2159 9.33713H10.5214C10.6058 9.33713 10.6742 9.26873 10.6742 9.18437V8.87884C10.6742 8.79447 10.6058 8.72607 10.5214 8.72607Z" fill="#0054A5"/>
<path d="M11.7056 8.72607H11.4001C11.3157 8.72607 11.2473 8.79447 11.2473 8.87884V9.18437C11.2473 9.26873 11.3157 9.33713 11.4001 9.33713H11.7056C11.79 9.33713 11.8584 9.26873 11.8584 9.18437V8.87884C11.8584 8.79447 11.79 8.72607 11.7056 8.72607Z" fill="#0054A5"/>
<path d="M11.9531 13.2139H8.36316V20.5847H11.9531V13.2139Z" fill="#0054A5"/>
<path d="M24.9004 10.7695H26.6284V12.3544H24.9004V10.7695Z" fill="#0054A5"/>
<g filter="url(#filter0_d_2019_2451)">
<path d="M8.65063 13.52L10.3215 13.816V19.9839L8.65063 20.2225V13.52Z" fill="#6096D7"/>
</g>
<path d="M15.116 13.3348L16.5974 16.0442L18.1026 13.3348H19.9328L17.7203 17.0047L19.971 20.6746H18.1504L16.5974 18.0321L15.0587 20.6746H13.2238L15.4601 17.0047L13.2811 13.3348H15.116ZM23.1202 10.8882V20.6746H21.3472V10.8882H23.1202Z" fill="#0054A5"/>
<path d="M28.0797 13.2395V14.5774H23.8605V13.2395H28.0797ZM24.9022 11.481H26.632V18.3716C26.632 18.6041 26.6669 18.7825 26.7371 18.9068C26.8104 19.0278 26.906 19.1107 27.0237 19.1553C27.1417 19.1999 27.2723 19.2222 27.4156 19.2222C27.5239 19.2222 27.6226 19.2142 27.7118 19.1983C27.8042 19.1823 27.8744 19.168 27.9221 19.1553L28.2135 20.5076C28.1212 20.5394 27.9889 20.5745 27.8171 20.6127C27.6482 20.6509 27.441 20.6732 27.1958 20.6796C26.7624 20.6924 26.3723 20.627 26.025 20.4837C25.6779 20.3372 25.4024 20.111 25.1984 19.8051C24.9978 19.4993 24.8988 19.117 24.9022 18.6583V11.481Z" fill="#0054A5"/>
</g>
<defs>
<filter id="filter0_d_2019_2451" x="7.97593" y="13.014" width="3.02031" height="8.05205" filterUnits="userSpaceOnUse" color-interpolation-filters="sRGB">
<feFlood flood-opacity="0" result="BackgroundImageFix"/>
<feColorMatrix in="SourceAlpha" type="matrix" values="0 0 0 0 0 0 0 0 0 0 0 0 0 0 0 0 0 0 127 0" result="hardAlpha"/>
<feOffset dy="0.168677"/>
<feGaussianBlur stdDeviation="0.337354"/>
<feComposite in2="hardAlpha" operator="out"/>
<feColorMatrix type="matrix" values="0 0 0 0 0 0 0 0 0 0 0 0 0 0 0 0 0 0 0.15 0"/>
<feBlend mode="normal" in2="BackgroundImageFix" result="effect1_dropShadow_2019_2451"/>
<feBlend mode="normal" in="SourceGraphic" in2="effect1_dropShadow_2019_2451" result="shape"/>
</filter>
<clipPath id="clip0_2019_2451">
<rect width="28.7547" height="24" fill="white"/>
</clipPath>
</defs>
</svg>
